<svg xmlns="http://www.w3.org/2000/svg" width="30" height="30" fill="none" viewBox="0 0 24 24" >
    <g clipPath="url(#clip0_1199_138)">
        <path fill="#767676" fillRule="evenodd" d="M2.113.75A2.186 2.186 0 000 3.015v17.97a2.187 2.187 0 002.113 2.265h12.31a2.187 2.187 0 002.077-2.265V16.5a.75.75 0 00-1.5 0V21.033a.687.687 0 01-.636.717H2.135A.687.687 0 011.5 21V3l-.001-.034a.686.686 0 01.636-.716h12.229A.687.687 0 0115 3v4.5a.75.75 0 101.5 0V3.015A2.188 2.188 0 0014.386.75H2.113zM18.97 7.724a.75.75 0 011.06 0l3.75 3.75a.748.748 0 010 1.06l-3.75 3.75a.75.75 0 11-1.06-1.06l2.47-2.47H7.5a.75.75 0 010-1.5h13.94l-2.47-2.47a.75.75 0 010-1.06z" clipRule="evenodd" ></path>
    </g>
    <defs>
        <clipPath id="clip0_1199_138">
            <path fill="#fff" d="M0 0H24V24H0z"></path>
        </clipPath>
    </defs>
</svg>