<svg xmlns="http://www.w3.org/2000/svg" width="20" height="20" fill="#000" version="1.1" viewBox="0 0 98.25 98.25" xmlSpace="preserve" className='' >
    <path d="M49.125 0C22.037 0 0 22.038 0 49.125S22.037 98.25 49.125 98.25 98.25 76.212 98.25 49.125 76.213 0 49.125 0zm0 88.25C27.551 88.25 10 70.699 10 49.125S27.551 10 49.125 10 88.25 27.551 88.25 49.125 70.699 88.25 49.125 88.25z"></path>
    <path d="M77.296 33.027L71.02 26.75c-.442-.442-1.227-.442-1.668 0L39.67 56.432 28.898 45.661c-.441-.442-1.225-.442-1.668 0l-6.276 6.276a1.178 1.178 0 000 1.668l17.882 17.881a1.18 1.18 0 001.668 0l36.792-36.792a1.177 1.177 0 000-1.667z"></path>
</svg>