<svg xmlns="http://www.w3.org/2000/svg" width="30" height="30" fill="#000" version="1.1" viewBox="0 0 70.074 70.074" xmlSpace="preserve" >
    <path d="M70.074 39.215h-2.512V16.847H23.335l-7.589 13.092H1.896v9.276H0v5.237h1.896v3.271h9.276c.614 3.134 3.375 5.504 6.687 5.504s6.071-2.374 6.68-5.504h20.169c.615 3.134 3.371 5.504 6.681 5.504a6.82 6.82 0 006.687-5.504h9.482v-3.271h2.511l.005-5.237zM17.859 50.616a4.206 4.206 0 01-4.202-4.197 4.207 4.207 0 014.202-4.202 4.199 4.199 0 010 8.399zm33.536 0a4.205 4.205 0 01-4.197-4.197 4.208 4.208 0 014.197-4.202 4.208 4.208 0 014.204 4.202 4.205 4.205 0 01-4.204 4.197zm13.551-5.507h-6.861c-.616-3.134-3.374-5.504-6.688-5.504-3.31 0-6.072 2.374-6.684 5.504H24.546c-.614-3.134-3.368-5.504-6.68-5.504s-6.078 2.374-6.687 5.504H4.518V32.562H17.26l7.586-13.095h40.105v25.646h-.005v-.004zM20.443 32.284l5.913-10.2h8.784v10.2H20.443z"></path>
</svg>