<svg version="1.0" xmlns="http://www.w3.org/2000/svg"
 width="388.000000pt" height="644.000000pt" viewBox="0 0 388.000000 644.000000"
 preserveAspectRatio="xMidYMid meet">

<path d="M1755 5159 c-99 -55 -211 -117 -250 -138 -38 -21 -112 -61 -162 -90
l-93 -52 0 -125 c0 -68 3 -124 8 -124 4 0 21 8 37 18 17 10 62 36 100 56 39
21 127 70 198 108 l127 71 0 97 0 98 115 63 c104 57 115 66 115 91 0 16 -3 28
-7 27 -5 0 -89 -46 -188 -100z"/>
<path d="M2353 5163 l-123 -67 0 -123 c0 -101 3 -123 15 -123 11 0 15 18 17
77 3 66 6 79 23 88 180 95 199 113 193 182 l-3 33 -122 -67z"/>
<path d="M2538 4978 l-48 -30 0 -58 0 -57 99 -60 c90 -55 100 -59 123 -47 13
7 30 24 36 39 10 22 15 24 32 15 11 -6 22 -21 25 -33 3 -12 10 -44 16 -72 10
-45 14 -244 5 -253 -5 -4 -114 57 -122 69 -10 17 20 9 64 -16 l42 -24 0 40 c0
37 -2 40 -22 33 -50 -15 -51 -14 -10 8 45 24 60 55 20 42 -13 -4 -32 -13 -43
-20 -27 -19 -33 -18 -28 9 3 15 18 29 44 40 21 9 39 24 39 32 0 13 -6 12 -40
-5 l-40 -20 0 20 c0 12 7 34 15 50 25 48 35 80 26 80 -10 0 -51 -92 -60 -133
-5 -23 -21 -36 -82 -68 l-76 -40 -89 56 c-49 31 -108 65 -132 77 -39 21 -44
21 -70 6 -15 -8 -63 -35 -107 -58 -44 -24 -136 -75 -205 -113 -69 -38 -142
-79 -162 -89 -21 -11 -38 -25 -38 -32 0 -6 4 -5 9 3 7 11 17 12 48 4 28 -7 49
-6 76 3 57 20 146 83 163 115 21 42 32 35 24 -16 -15 -100 -10 -106 160 -207
47 -28 161 -96 255 -151 192 -114 219 -126 294 -127 46 0 61 5 98 33 23 17 46
43 49 56 10 35 -26 115 -54 119 -14 2 -22 10 -22 22 0 17 4 18 26 9 25 -9 26
-8 13 8 -12 14 -9 14 19 -2 l33 -20 82 44 c160 85 282 155 289 166 9 11 11 65
3 65 -3 0 -72 -37 -153 -82 -81 -46 -163 -91 -182 -101 l-35 -19 -69 41 c-38
22 -73 44 -77 48 -5 5 36 31 91 58 l100 49 0 77 c0 57 4 80 15 89 13 10 13 15
3 21 -7 4 -18 23 -25 41 l-13 33 5 -35 4 -35 -16 38 c-9 22 -23 37 -33 37 -21
0 -50 -31 -50 -52 0 -13 -28 -34 -35 -26 -1 2 -7 25 -14 52 -18 74 -50 92 -99
58 -38 -27 -72 -34 -79 -16 -3 8 -9 14 -15 14 -5 0 -34 17 -63 38 -53 36 -54
38 -55 85 0 48 1 48 45 68 25 11 45 24 45 29 0 17 -23 10 -72 -22z m396 -257
c3 -5 -3 -11 -14 -14 -13 -3 -20 0 -20 9 0 15 26 19 34 5z m-7 -78 c-29 -16
-37 -16 -37 0 0 24 21 37 41 24 18 -11 18 -12 -4 -24z m-61 -31 c-15 -15 -16
-15 -16 4 0 28 24 52 28 28 2 -9 -3 -24 -12 -32z m114 25 c0 -17 -11 -28 -46
-45 -55 -27 -56 -7 -1 22 20 11 37 25 37 33 0 7 2 13 5 13 3 0 5 -10 5 -23z
m-632 -17 c52 -30 52 -31 52 -80 0 -46 2 -51 33 -66 17 -9 34 -20 37 -24 3 -4
16 -13 29 -20 l24 -12 -24 -19 -24 -20 28 12 c21 10 33 9 54 0 l28 -13 -43
-25 c-23 -14 -42 -30 -42 -37 0 -6 15 -20 33 -30 l32 -18 -24 20 -24 20 21 11
c18 9 29 8 62 -9 22 -11 40 -27 40 -35 0 -20 4 -19 49 7 l38 22 38 -24 c38
-23 38 -24 17 -40 -11 -9 -22 -30 -25 -46 -4 -27 -5 -28 -12 -6 -4 12 -10 22
-14 22 -15 0 -31 -25 -32 -49 -2 -24 -2 -24 -6 -3 -5 24 -5 24 -27 16 -10 -4
-16 -18 -16 -35 0 -16 -3 -29 -6 -29 -17 0 -84 46 -84 57 0 8 -4 12 -10 8 -5
-3 -27 6 -50 20 -42 27 -50 50 -28 85 15 23 4 38 -15 21 -11 -9 -24 -6 -56 13
-31 17 -38 25 -27 29 9 4 16 18 16 31 0 14 8 30 18 35 9 6 14 11 10 11 -4 0
-29 -14 -57 -31 -38 -24 -51 -38 -51 -55 0 -28 -8 -30 -36 -9 -12 7 -48 28
-80 46 -86 46 -84 44 -84 118 l0 66 88 47 c48 26 89 48 92 48 3 0 29 -14 58
-30z m627 -107 l-6 -33 -49 25 c-28 14 -50 30 -50 35 0 14 16 12 51 -6 17 -8
33 -13 36 -10 3 3 -6 11 -21 17 -33 16 -33 21 7 40 32 16 32 16 35 -9 2 -14 1
-40 -3 -59z m-95 58 c0 -5 -7 -11 -15 -15 -15 -5 -20 5 -8 17 9 10 23 9 23 -2z
m-170 -21 c0 -28 -88 -72 -112 -56 -15 9 -9 15 45 43 34 18 63 32 65 33 1 0 2
-9 2 -20z m-52 -212 c34 -21 35 -22 14 -31 -17 -8 -31 -5 -57 9 -32 17 -34 20
-18 31 22 16 19 17 61 -9z"/>
<path d="M2305 4510 c-3 -5 -1 -10 4 -10 6 0 11 5 11 10 0 6 -2 10 -4 10 -3 0
-8 -4 -11 -10z"/>
<path d="M2270 4489 c0 -5 5 -7 10 -4 6 3 10 8 10 11 0 2 -4 4 -10 4 -5 0 -10
-5 -10 -11z"/>
<path d="M2240 4469 c0 -5 5 -7 10 -4 6 3 10 8 10 11 0 2 -4 4 -10 4 -5 0 -10
-5 -10 -11z"/>
<path d="M2270 4459 c0 -5 5 -7 10 -4 6 3 10 8 10 11 0 2 -4 4 -10 4 -5 0 -10
-5 -10 -11z"/>
<path d="M2294 4431 c4 -6 22 -18 39 -27 30 -14 31 -14 12 1 -30 25 -59 39
-51 26z"/>
<path d="M2451 4371 c-7 -5 -12 -14 -10 -20 2 -6 10 -2 17 9 14 22 13 23 -7
11z"/>
<path d="M2591 4244 c0 -11 3 -14 6 -6 3 7 2 16 -1 19 -3 4 -6 -2 -5 -13z"/>
<path d="M2280 4940 c0 -10 9 -24 20 -30 17 -9 20 -8 20 14 0 13 -7 27 -16 30
-23 9 -24 8 -24 -14z"/>
<path d="M1905 4940 c-3 -5 -1 -10 4 -10 6 0 11 5 11 10 0 6 -2 10 -4 10 -3 0
-8 -4 -11 -10z"/>
<path d="M2340 4912 c0 -18 18 -42 32 -42 17 0 7 40 -12 50 -17 9 -20 8 -20
-8z"/>
<path d="M1905 4910 c-3 -5 -1 -10 4 -10 6 0 11 5 11 10 0 6 -2 10 -4 10 -3 0
-8 -4 -11 -10z"/>
<path d="M1030 4844 c0 -40 2 -45 18 -39 24 9 24 9 55 1 22 -7 27 -14 27 -40
0 -32 -16 -44 -122 -94 -5 -2 -8 6 -8 17 0 27 -5 26 -66 -8 -46 -25 -54 -26
-75 -15 -36 20 -39 18 -39 -31 0 -40 -3 -46 -32 -61 -48 -24 -148 -86 -148
-91 0 -3 46 20 103 50 73 39 108 53 118 46 17 -11 19 -9 -93 -74 -43 -25 -78
-48 -78 -50 0 -7 115 52 234 119 54 31 100 56 102 56 3 0 23 12 47 27 23 15
52 26 65 25 21 -2 22 2 22 73 l0 75 -47 30 c-68 44 -83 41 -83 -16z"/>
<path d="M2427 4883 c-4 -3 -7 -26 -7 -49 0 -34 3 -42 15 -38 10 4 15 20 15
50 0 41 -8 53 -23 37z"/>
<path d="M2713 4837 c-13 -5 -23 -16 -23 -24 0 -17 10 -16 34 2 25 19 17 35
-11 22z"/>
<path d="M2652 4819 c2 -7 10 -15 17 -17 8 -3 12 1 9 9 -2 7 -10 15 -17 17 -8
3 -12 -1 -9 -9z"/>
<path d="M2940 4766 c0 -2 7 -7 16 -10 8 -3 12 -2 9 4 -6 10 -25 14 -25 6z"/>
<path d="M1998 4697 c-32 -19 -40 -20 -59 -9 -27 17 -40 5 -15 -13 18 -14 18
-15 -8 -26 -19 -9 -26 -20 -27 -43 -1 -24 -3 -26 -6 -8 -2 12 -8 22 -12 22
-18 0 -40 -27 -43 -52 l-3 -27 -48 30 c-27 17 -46 26 -42 20 3 -6 26 -22 50
-37 43 -25 45 -25 74 -8 28 16 30 16 62 -4 l34 -21 53 34 c29 18 48 36 43 40
-6 3 -11 15 -11 26 0 20 -1 20 -42 -3 -32 -17 -44 -30 -46 -51 -3 -23 -6 -26
-23 -17 -13 7 -19 21 -19 44 0 27 6 36 40 55 32 18 42 20 58 10 24 -15 59 -4
44 14 -5 6 -11 19 -13 29 -4 14 -8 14 -41 -5z"/>
<path d="M1423 4597 l-62 -32 -1 -46 c0 -39 -4 -50 -25 -63 -25 -16 -28 -16
-61 5 -25 15 -39 18 -46 11 -8 -8 4 -18 43 -35 l54 -24 98 49 c53 26 97 52 97
57 0 5 -7 12 -16 15 -13 5 -15 15 -11 51 4 25 3 45 -1 45 -4 -1 -35 -15 -69
-33z"/>
<path d="M1262 4524 c4 -21 48 -39 48 -20 0 7 -12 18 -26 25 -22 10 -25 9 -22
-5z"/>
<path d="M1325 4509 c-4 -6 -5 -13 -2 -16 7 -7 27 6 27 18 0 12 -17 12 -25 -2z"/>
<path d="M392 4433 c3 -37 5 -38 163 -131 88 -51 225 -134 305 -184 270 -170
376 -234 456 -278 119 -66 304 -179 344 -210 19 -15 53 -36 75 -48 l40 -20 41
22 c22 12 62 35 90 53 27 17 121 70 209 118 180 98 282 169 291 203 4 13 4 25
1 28 -3 3 -37 -13 -77 -35 -39 -23 -73 -41 -75 -41 -2 0 -34 -17 -72 -38 -37
-22 -99 -56 -138 -77 -38 -20 -113 -62 -166 -91 -52 -30 -99 -54 -103 -54 -4
0 -129 74 -279 164 -644 387 -757 455 -852 511 -55 32 -131 78 -169 102 -38
23 -74 43 -78 43 -5 0 -8 -17 -6 -37z"/>
<path d="M1656 4435 c-48 -44 -74 -58 -101 -51 -33 8 -31 17 6 39 18 10 29 20
26 23 -3 3 -24 -4 -46 -17 -30 -17 -41 -29 -41 -47 0 -24 -1 -24 -25 -8 -14 9
-25 12 -25 7 0 -5 15 -18 33 -29 19 -11 45 -27 58 -35 23 -15 27 -15 78 14 39
23 50 34 42 42 -13 13 -15 57 -3 57 13 0 48 29 36 30 -6 0 -23 -11 -38 -25z"/>
<path d="M890 4248 c1 -12 170 -118 189 -118 4 0 30 9 56 21 31 14 44 24 37
31 -6 6 -20 4 -39 -6 -31 -15 -76 -18 -67 -4 3 4 1 8 -4 8 -5 0 -37 18 -70 40
-59 40 -102 51 -102 28z"/>
<path d="M1113 4240 c-13 -5 -23 -16 -23 -24 0 -12 5 -13 30 -5 17 6 30 17 30
25 0 16 -6 16 -37 4z"/>
<path d="M1060 4226 c0 -8 5 -18 10 -21 6 -3 10 1 10 9 0 8 -4 18 -10 21 -5 3
-10 -1 -10 -9z"/>
<path d="M1263 4129 c-25 -16 -33 -28 -33 -50 0 -35 -3 -35 -41 -8 -16 11 -29
16 -29 12 0 -5 17 -19 38 -31 20 -12 51 -30 67 -41 l30 -20 55 34 c30 19 49
35 43 35 -7 0 -13 11 -13 25 0 30 0 30 -44 4 -28 -16 -36 -27 -36 -50 0 -31
-14 -36 -42 -15 -11 8 -18 27 -18 48 0 30 5 38 30 48 17 7 33 17 36 21 9 15
-9 10 -43 -12z"/>
<path d="M1914 4076 c-3 -8 -16 -17 -30 -20 -13 -4 -24 -11 -24 -16 0 -14 70
-24 83 -11 6 6 29 11 52 12 l40 0 -54 25 c-63 28 -60 28 -67 10z"/>
<path d="M1610 4065 c0 -8 7 -15 15 -15 8 0 15 7 15 15 0 8 -7 15 -15 15 -8 0
-15 -7 -15 -15z"/>
<path d="M1750 3992 c0 -5 -16 -16 -35 -25 -68 -32 -49 -44 146 -92 99 -24
166 -36 182 -31 34 8 34 19 0 33 -162 64 -212 87 -210 97 1 6 -10 10 -25 9
-16 -1 -28 2 -28 8 0 5 -7 9 -15 9 -8 0 -15 -4 -15 -8z"/>
<path d="M1527 3974 c-12 -12 4 -24 33 -24 16 0 32 5 35 10 3 6 -3 10 -14 10
-10 0 -26 2 -33 5 -8 3 -17 3 -21 -1z"/>
<path d="M1619 3960 c-14 -11 -18 -19 -11 -20 19 0 52 19 52 30 0 16 -16 12
-41 -10z"/>
<path d="M1481 3891 c-12 -7 -21 -21 -21 -31 0 -33 61 -40 112 -14 20 10 44
14 66 10 l35 -5 -24 16 c-13 9 -27 21 -31 27 -10 15 -114 13 -137 -3z"/>
<path d="M1748 3799 c-31 -16 -38 -25 -38 -49 0 -35 -1 -35 -40 -15 -51 27
-33 9 36 -34 36 -23 71 -38 77 -34 84 49 87 53 75 76 -7 12 -14 23 -14 25 -1
2 -18 -7 -38 -19 -28 -16 -36 -27 -36 -50 0 -29 0 -29 -26 -13 -20 14 -24 24
-22 53 3 34 15 46 63 64 6 3 8 7 5 10 -3 3 -22 -4 -42 -14z"/>
<path d="M1895 3810 c3 -5 1 -11 -5 -15 -11 -7 -14 -55 -2 -55 38 2 59 74 22
77 -11 1 -18 -2 -15 -7z"/>
<path d="M1740 3749 c0 -5 5 -7 10 -4 6 3 10 8 10 11 0 2 -4 4 -10 4 -5 0 -10
-5 -10 -11z"/>
<path d="M2333 2553 c-32 -16 -35 -22 -37 -85 -1 -22 -4 -25 -19 -16 -10 5
-25 8 -35 6 -9 -2 78 -60 196 -132 117 -71 212 -132 212 -135 0 -3 -35 -25
-79 -47 l-78 -42 -89 56 c-199 124 -343 209 -349 204 -11 -12 -4 -50 13 -64
26 -22 403 -250 421 -255 16 -4 430 212 443 231 11 16 10 56 -2 56 -5 0 -47
-20 -92 -44 -46 -24 -89 -42 -95 -39 -8 3 -13 25 -13 61 0 80 -9 91 -54 69
l-35 -16 6 -67 c5 -50 3 -65 -5 -60 -7 4 -12 13 -12 21 0 19 -19 29 -55 30
-22 0 -31 5 -33 20 -4 28 -39 50 -57 35 -10 -8 -15 -8 -21 1 -4 8 -3 9 4 5 8
-5 12 0 12 13 0 12 3 21 6 21 3 0 37 -19 75 -41 38 -23 72 -39 75 -37 3 3 -31
27 -76 53 -68 40 -80 51 -81 73 0 23 -9 31 -62 56 -63 30 -120 65 -84 52 9 -3
24 -9 32 -12 11 -5 15 1 15 20 0 30 -3 31 -47 9z m387 -324 c0 -14 -27 -22
-47 -14 -17 6 -17 7 0 20 19 14 47 10 47 -6z"/>
<path d="M1194 2436 c-10 -8 -17 -16 -14 -19 3 -2 62 -39 132 -81 l127 -76 65
30 c36 16 66 34 66 39 0 21 -22 22 -61 2 -42 -22 -79 -27 -79 -11 0 6 -4 10
-10 10 -5 0 -40 20 -76 45 -60 41 -117 75 -127 75 -2 0 -12 -6 -23 -14z m66
-26 c0 -5 -4 -10 -10 -10 -5 0 -10 5 -10 10 0 6 5 10 10 10 6 0 10 -4 10 -10z
m30 -20 c0 -5 -2 -10 -4 -10 -3 0 -8 5 -11 10 -3 6 -1 10 4 10 6 0 11 -4 11
-10z"/>
<path d="M1488 2414 c-31 -16 -40 -51 -10 -39 9 4 25 10 35 12 9 3 17 14 17
24 0 23 -6 23 -42 3z"/>
<path d="M2490 2417 c0 -15 49 -41 59 -32 6 6 -38 44 -51 45 -5 0 -8 -6 -8
-13z"/>
<path d="M1410 2401 c0 -5 7 -14 15 -21 13 -10 15 -9 15 9 0 12 -6 21 -15 21
-8 0 -15 -4 -15 -9z"/>
<path d="M932 2370 c3 -31 12 -39 118 -105 260 -161 321 -196 333 -193 7 2
108 54 225 116 202 108 212 115 212 143 0 16 -5 29 -10 29 -10 0 -44 -17 -314
-162 -60 -32 -113 -58 -117 -58 -8 0 -62 32 -332 197 -119 73 -119 73 -115 33z"/>
<path d="M2560 2375 c0 -8 5 -15 10 -15 6 0 10 7 10 15 0 8 -4 15 -10 15 -5 0
-10 -7 -10 -15z"/>
<path d="M2590 2361 c0 -12 6 -21 15 -21 8 0 15 4 15 9 0 5 -7 14 -15 21 -13
10 -15 9 -15 -9z"/>
<path d="M2255 1718 c-2 -7 -6 -34 -10 -59 -5 -43 -4 -49 22 -67 55 -39 331
-200 358 -209 28 -9 27 -10 -45 -50 l-73 -40 -131 80 c-246 151 -305 187 -311
187 -4 0 -5 -15 -3 -32 3 -31 15 -40 222 -167 l220 -134 55 29 c165 85 361
192 375 203 18 15 22 61 6 61 -6 0 -39 -15 -73 -32 -34 -18 -64 -34 -67 -36
-3 -1 -7 10 -8 25 -6 74 -88 121 -107 60 -4 -14 -8 -17 -12 -9 -8 20 -23 14
-24 -10 0 -21 -1 -21 -8 -4 -7 19 -8 18 -24 -4 l-16 -23 -51 33 c-47 30 -51
36 -46 63 5 24 3 28 -10 23 -8 -3 -24 -1 -34 4 -16 9 -18 15 -9 36 7 21 7 25
-5 21 -7 -3 -20 0 -27 6 -11 10 -11 9 0 -5 11 -15 11 -19 -3 -24 -9 -3 -16
-13 -16 -21 0 -17 2 -17 -68 21 -44 25 -52 34 -52 58 0 28 -17 39 -25 16z"/>
<path d="M1130 1680 c0 -4 10 -6 23 -3 18 3 16 1 -8 -14 l-30 -17 60 -7 c94
-12 133 4 78 31 -32 15 -123 23 -123 10z"/>
<path d="M1497 1683 c-12 -11 -8 -23 8 -23 8 0 15 7 15 15 0 16 -12 20 -23 8z"/>
<path d="M2523 1676 c0 -8 5 -12 11 -10 15 5 44 -16 30 -22 -6 -3 -20 -12 -30
-20 -18 -14 -18 -15 3 -9 22 6 62 -9 74 -28 8 -12 52 11 44 24 -4 6 -13 6 -23
0 -10 -5 -25 -5 -39 2 -20 9 -21 12 -7 21 13 10 9 15 -24 34 -29 16 -39 18
-39 8z"/>
<path d="M1360 1601 c0 -6 -12 -9 -27 -8 -16 1 -27 -3 -26 -9 1 -6 -46 -30
-105 -53 -59 -24 -111 -47 -116 -51 -4 -5 -41 12 -81 36 -40 24 -76 44 -79 44
-4 0 -6 -14 -4 -31 3 -29 17 -40 203 -153 110 -67 209 -128 220 -135 18 -12
32 -7 120 41 55 30 138 74 185 98 144 74 160 86 160 121 l0 31 -107 -57 c-149
-79 -272 -145 -308 -165 -29 -16 -31 -16 -80 15 -27 18 -88 56 -135 84 -75 45
-81 51 -53 51 42 0 300 65 318 80 13 11 8 17 -30 41 -50 32 -55 34 -55 20z"/>
<path d="M1470 1587 c0 -8 11 -19 25 -25 14 -6 25 -8 25 -3 0 5 -11 16 -25 25
-20 13 -25 14 -25 3z"/>
<path d="M1550 1580 c-22 -6 -23 -8 -7 -15 22 -9 70 2 62 15 -7 11 -19 11 -55
0z"/>
<path d="M1498 1498 c-26 -28 -27 -28 -3 -22 12 3 36 -1 53 -10 38 -20 96 -21
111 -2 18 22 -25 58 -59 51 -15 -3 -37 -2 -51 3 -19 6 -29 3 -51 -20z"/>
<path d="M2020 955 l-85 -43 -42 24 c-23 13 -44 24 -47 24 -3 0 -6 -21 -6 -47
0 -44 2 -48 25 -48 17 0 25 5 25 18 0 20 27 34 39 21 5 -5 11 -40 14 -79 3
-43 2 -62 -4 -48 -8 22 -42 37 -70 31 -9 -2 -13 4 -11 17 3 15 1 17 -8 9 -6
-6 -8 -22 -5 -36 8 -32 91 -80 123 -71 18 4 21 2 16 -12 -4 -10 -1 -21 7 -25
20 -13 29 -2 29 33 0 31 4 35 100 82 55 27 100 53 100 57 0 12 -45 39 -48 29
-2 -6 -9 -8 -17 -5 -7 3 -16 1 -20 -5 -15 -25 -24 -7 -27 53 l-3 64 -85 -43z
m10 -162 c0 -7 -4 -13 -8 -13 -5 0 -9 6 -9 13 0 6 -4 21 -8 32 l-8 20 16 -20
c9 -11 17 -26 17 -32z m-23 -65 c-3 -8 -6 -5 -6 6 -1 11 2 17 5 13 3 -3 4 -12
1 -19z"/>
<path d="M2142 961 c-8 -5 -12 -16 -10 -24 2 -11 7 -14 16 -8 8 5 12 16 10 24
-2 11 -7 14 -16 8z"/>
<path d="M1500 790 c0 -34 29 -55 302 -219 l137 -82 98 50 c323 166 338 175
341 209 2 18 -1 32 -6 32 -4 0 -101 -49 -214 -110 -114 -60 -210 -110 -216
-110 -8 0 -79 42 -325 193 -60 37 -110 67 -113 67 -2 0 -4 -14 -4 -30z"/>
<path d="M1744 804 c3 -9 6 -21 6 -27 0 -7 12 -17 26 -24 23 -11 25 -10 22 10
-2 15 -9 21 -22 19 -15 -3 -18 1 -13 17 3 14 0 21 -10 21 -10 0 -13 -6 -9 -16z"/>
<path d="M1785 810 c-3 -5 -1 -10 4 -10 6 0 11 5 11 10 0 6 -2 10 -4 10 -3 0
-8 -4 -11 -10z"/>
<path d="M1820 735 c-7 -8 -21 -15 -31 -15 -10 0 -21 -5 -24 -10 -3 -6 -18 -7
-33 -4 -26 6 -26 5 5 -15 l32 -20 57 26 c53 24 56 27 39 39 -24 18 -30 17 -45
-1z"/>
</svg>
